<?xml version="1.0" standalone="no"?>
<!DOCTYPE svg PUBLIC "-//W3C//DTD SVG 20010904//EN"
 "http://www.w3.org/TR/2001/REC-SVG-20010904/DTD/svg10.dtd">
<svg version="1.0" xmlns="http://www.w3.org/2000/svg"
 width="700.000000pt" height="700.000000pt" viewBox="0 0 700.000000 700.000000"
 preserveAspectRatio="xMidYMid meet">
<metadata>
Created by potrace 1.11, written by Peter Selinger 2001-2013
</metadata>
<g transform="translate(0.000000,700.000000) scale(0.100000,-0.100000)"
fill="#000000" stroke="none">
<path d="M3298 6995 c-2 -1 -45 -6 -97 -10 -52 -3 -97 -8 -100 -10 -3 -1 -33
-6 -66 -9 -33 -3 -69 -8 -80 -10 -11 -2 -60 -11 -110 -20 -837 -154 -1640
-666 -2165 -1381 -336 -458 -565 -1010 -640 -1540 -6 -44 -13 -93 -15 -110
-20 -135 -27 -518 -12 -690 42 -492 188 -964 437 -1410 222 -399 563 -789 944
-1079 305 -231 632 -404 996 -526 130 -44 333 -100 415 -115 17 -3 44 -8 60
-11 17 -3 39 -7 50 -9 74 -10 134 -21 230 -41 60 -12 112 -20 115 -18 3 3 5
329 6 723 l0 718 -418 -1 c-271 -1 -419 3 -421 9 -1 6 -2 89 -2 185 l1 175
770 3 770 2 0 -910 c-1 -500 0 -910 0 -910 1 0 23 4 50 9 27 5 68 12 91 16
150 22 157 24 343 84 876 288 1593 853 2055 1621 56 93 205 379 205 394 0 3
11 29 24 58 13 29 31 73 39 98 9 25 26 72 38 105 120 332 182 697 183 1080 1
292 -13 468 -55 680 -6 28 -12 61 -15 75 -12 68 -81 308 -116 410 -216 619
-615 1184 -1122 1588 -39 31 -73 59 -76 62 -24 26 -244 173 -375 251 -109 64
-367 188 -495 237 -181 70 -475 152 -630 176 -19 3 -46 8 -60 11 -39 8 -153
23 -236 31 -57 6 -511 14 -516 9z m367 -189 c333 -14 653 -78 960 -191 55 -20
118 -44 140 -52 51 -19 320 -151 405 -198 69 -39 312 -199 333 -219 6 -6 28
-23 47 -36 19 -13 37 -27 40 -30 3 -3 43 -37 90 -76 88 -73 241 -222 320 -310
99 -110 116 -130 205 -249 339 -451 570 -1020 630 -1555 4 -30 9 -68 11 -85 9
-57 12 -490 4 -565 -16 -153 -28 -241 -46 -330 -3 -14 -7 -38 -10 -55 -11 -63
-57 -234 -91 -340 -253 -784 -805 -1468 -1538 -1904 -291 -173 -792 -371 -950
-375 l-60 -1 -2 870 c0 479 -1 877 -2 886 -1 14 -91 16 -928 16 -511 0 -930
-4 -933 -8 -4 -6 -5 -573 -1 -669 l1 -25 418 0 417 0 0 -557 c1 -382 -2 -558
-10 -559 -96 -11 -386 47 -625 125 -216 70 -444 171 -636 282 -100 57 -343
218 -379 251 -11 10 -43 36 -70 58 -124 98 -219 188 -411 391 -56 59 -204 252
-283 369 -321 476 -511 1009 -558 1565 -10 119 -10 447 0 560 50 561 244 1099
564 1565 412 599 1005 1046 1696 1280 209 70 392 112 661 152 60 8 91 11 236
18 74 4 136 8 138 10 1 1 21 0 45 -1 23 -2 101 -5 172 -8z"/>
<path d="M3377 6624 c-1 -1 -49 -4 -107 -8 -58 -3 -115 -8 -127 -10 -12 -3
-50 -7 -84 -11 -35 -4 -66 -8 -69 -10 -4 -2 -29 -7 -56 -11 -27 -3 -110 -21
-184 -40 -617 -152 -1165 -482 -1591 -955 -66 -73 -85 -97 -157 -192 -214
-281 -367 -572 -478 -905 -31 -94 -77 -267 -89 -332 -2 -14 -9 -50 -15 -80 -6
-30 -13 -77 -16 -105 -3 -27 -7 -55 -9 -62 -22 -70 -23 -585 -1 -698 2 -11 7
-46 11 -79 30 -246 126 -574 246 -839 220 -487 524 -863 969 -1199 303 -228
688 -421 1026 -514 153 -41 194 -52 194 -48 0 2 11 -1 25 -6 18 -7 25 -6 26 3
0 6 2 144 2 305 l2 292 -300 1 c-165 0 -309 2 -320 4 -11 2 -34 6 -51 10 -43
8 -110 58 -130 97 -37 72 -41 114 -39 493 2 390 2 395 50 465 29 42 70 68 134
84 72 19 1880 15 1939 -4 65 -21 120 -75 142 -140 18 -52 19 -98 20 -784 0
-401 2 -731 4 -733 4 -4 136 41 241 82 116 45 363 169 480 240 367 223 729
552 931 846 65 94 144 217 144 224 0 2 17 32 39 67 79 130 186 375 249 568 54
167 80 276 117 490 23 134 34 335 30 560 -5 258 -5 268 -35 444 -38 224 -79
370 -162 580 -44 111 -172 363 -238 466 -433 682 -1121 1171 -1915 1362 -44
10 -96 21 -115 24 -19 3 -53 9 -75 14 -22 5 -65 12 -95 15 -30 3 -66 8 -80 10
-86 13 -472 29 -483 19z m323 -2069 c311 -55 583 -248 737 -523 56 -100 104
-240 121 -347 9 -64 9 -317 0 -373 -61 -359 -306 -667 -639 -803 -285 -117
-640 -105 -908 31 -297 149 -522 454 -566 765 -3 22 -8 51 -11 64 -6 28 -6
225 0 261 3 14 7 43 11 65 12 82 56 219 96 297 119 236 313 408 581 516 145
59 398 79 578 47z"/>
<path d="M3489 4436 c-2 -2 -35 -6 -74 -9 -88 -7 -114 -13 -195 -39 -234 -75
-437 -246 -550 -464 -26 -50 -64 -150 -63 -164 0 -3 -4 -16 -9 -30 -23 -61
-37 -253 -24 -340 14 -92 20 -121 38 -175 51 -150 135 -282 248 -389 247 -233
579 -314 900 -219 312 92 548 332 643 656 17 58 21 100 21 222 1 83 -3 169 -7
192 -8 44 -44 151 -72 218 -49 116 -199 291 -318 374 -132 91 -315 154 -461
160 -33 1 -63 4 -67 6 -3 3 -8 3 -10 1z m179 -210 c71 -15 213 -72 220 -88 2
-5 8 -8 14 -8 12 0 88 -60 128 -100 108 -110 183 -258 207 -409 13 -82 5 -232
-16 -313 -75 -287 -310 -500 -603 -545 -67 -10 -207 -7 -273 7 -481 98 -731
629 -508 1075 58 116 139 206 253 280 169 110 372 145 578 101z"/>
</g>
</svg>
